<svg xmlns="http://www.w3.org/2000/svg" xmlns:xlink="http://www.w3.org/1999/xlink" viewBox="0 0 4680 3120"><defs><style>.cls-1{fill:#fff;}.cls-2{fill:#d0d0e1;}.cls-3{fill:#a6a7c1;opacity:0.7;}.cls-4{fill:#ebebf7;}.cls-14,.cls-5{fill:#594e9c;}.cls-5{opacity:0.4;}.cls-6{fill:#fab483;}.cls-7{fill:#767c87;}.cls-8{fill:#a6a6b0;}.cls-9{fill:#ade6e8;}.cls-10{fill:#6dc9f3;}.cls-11{fill:#0074bd;}.cls-12{fill:#fdae75;}.cls-13{fill:url(#linear-gradient);}.cls-15{fill:url(#linear-gradient-2);}.cls-16{fill:url(#linear-gradient-3);}.cls-17{fill:url(#linear-gradient-4);}.cls-18{fill:#f53f53;}.cls-19{fill:#d7f6f5;opacity:0.58;}.cls-20{fill:#2a3071;}.cls-21{fill:url(#linear-gradient-5);}.cls-22{fill:url(#linear-gradient-6);}.cls-23{fill:#6e67fa;}.cls-24{fill:#00b3eb;}.cls-25{fill:#f7b69e;}.cls-26{fill:#ef7a77;}.cls-27{fill:#823333;}.cls-28{fill:#f39c86;}.cls-29{fill:#892257;}.cls-30{fill:#671a41;}.cls-31{fill:#1f9fb5;}.cls-32{fill:#ea5168;}.cls-33{fill:#1d1d1b;}.cls-34{fill:#4f112f;}.cls-35{fill:#5a2220;}.cls-36{fill:#ea4e5d;opacity:0.53;}.cls-37,.cls-38{fill:#105f6b;}.cls-37{opacity:0.39;}.cls-39{fill:#e6cad8;}.cls-40{fill:#501606;}.cls-41{fill:#772317;}.cls-42{fill:#d43846;}.cls-43{fill:#fff0fa;}.cls-44{fill:#e30613;}.cls-45{fill:#753e65;}.cls-46{fill:#ed6971;}.cls-47{fill:#562c48;}.cls-48{fill:#1a295e;}.cls-49{fill:#1a2043;}.cls-50{fill:#9a603c;}.cls-51{fill:#c57a5a;}.cls-52{fill:#0060a9;}.cls-53{fill:#43bbed;}.cls-54{fill:#0b5290;}.cls-55{fill:#da3e37;}.cls-56{fill:#f07e51;}.cls-57{fill:#925d62;}.cls-58{fill:#72494c;}.cls-59{fill:#717eb4;}.cls-60{fill:#1aa79d;}.cls-61{fill:#2cd1bf;}.cls-62{fill:#38726b;}.cls-63{fill:#485298;}.cls-64{opacity:0.64;}.cls-65{fill:#b14d82;}</style><linearGradient id="linear-gradient" x1="1880.81" y1="1491.95" x2="2647.24" y2="1491.95" gradientUnits="userSpaceOnUse"><stop offset="0.93" stop-color="#5c9aff"/><stop offset="0.99" stop-color="#fff"/></linearGradient><linearGradient id="linear-gradient-2" x1="1880.81" y1="1594.95" x2="2647.24" y2="1594.95" gradientUnits="userSpaceOnUse"><stop offset="0.52" stop-color="#5c9aff"/><stop offset="0.81" stop-color="#fff"/></linearGradient><linearGradient id="linear-gradient-3" x1="1880.81" y1="1695.35" x2="2647.24" y2="1695.35" gradientUnits="userSpaceOnUse"><stop offset="0.69" stop-color="#5c9aff"/><stop offset="0.95" stop-color="#fff"/></linearGradient><linearGradient id="linear-gradient-4" x1="1880.81" y1="1795.75" x2="2647.24" y2="1795.75" gradientUnits="userSpaceOnUse"><stop offset="0" stop-color="#5c9aff"/><stop offset="0.67" stop-color="#fff"/></linearGradient><linearGradient id="linear-gradient-5" x1="2602.5" y1="1138.89" x2="2607.62" y2="1535.02" gradientUnits="userSpaceOnUse"><stop offset="0" stop-color="#00b3eb"/><stop offset="0.36" stop-color="#fff"/></linearGradient><linearGradient id="linear-gradient-6" x1="2606.72" y1="1219.02" x2="2594.33" y2="1634.87" gradientUnits="userSpaceOnUse"><stop offset="0" stop-color="#5c9aff"/><stop offset="0.37" stop-color="#fff"/></linearGradient></defs><title>02</title><g id="_02" data-name="02"><rect id="_02-2" data-name="02" class="cls-1" width="4680" height="3120"/><path class="cls-2" d="M3593.64,2468.35c65.59-29.63,101.84-62.18,101.84-96.33,0-137.46-587.16-248.9-1311.47-248.9S1072.53,2234.56,1072.53,2372,1659.7,2620.93,2384,2620.93c161,0,315.25-5.52,457.77-15.59a57.88,57.88,0,0,0-7.4,27.69c0,95.58,259.81,173.07,580.31,173.07S3995,2728.61,3995,2633C3995,2556.07,3826.57,2490.85,3593.64,2468.35Z"/><ellipse class="cls-3" cx="2359.13" cy="2232.1" rx="630.4" ry="66.25"/><ellipse class="cls-3" cx="1630.34" cy="2338.23" rx="226.44" ry="51.07"/><ellipse class="cls-3" cx="2971.94" cy="2578.71" rx="294.2" ry="66.35"/><ellipse class="cls-3" cx="3602.78" cy="2721.15" rx="294.2" ry="109.36"/><path class="cls-4" d="M3304.71,622.94c-279.72-55.06-354.34,24.15-627.64-21C2500,572.73,2358.26,510.9,2334.43,500.33,2208.71,444.57,2143.6,392.42,1969,327.69c-74.55-27.64-113.7-42.16-170.64-53.18-26.45-5.12-221.05-40.78-392.54,23.22C1098.71,412.34,1028.24,786,1024.77,806c-8.68,49.14-16.88,125.52-3.32,216.24,0,0,33.77,226,237.54,435.42,400.26,411.38,2269.27,443.79,2479.12-148.34,60.95-172,4.78-469-180-601.38C3490.4,659.48,3424,646.42,3304.71,622.94Z"/><rect class="cls-5" x="2899.04" y="382.11" width="734.2" height="659.03" rx="79.92"/><rect class="cls-6" x="2987.31" y="492.54" width="145.08" height="447.78"/><rect class="cls-6" x="3195.34" y="596.41" width="145.08" height="343.91"/><rect class="cls-6" x="3419.21" y="684.97" width="145.08" height="255.35"/><path class="cls-7" d="M1875.8,1907.48l-46.65,317.46c-1.21,8.25,5.5,15.61,14.23,15.61h21.4a14.26,14.26,0,0,0,13.87-10.17l100.78-359.64S1872.93,1763.26,1875.8,1907.48Z"/><path class="cls-7" d="M2845.81,1913.84l46.66,317.46c1.21,8.25-5.5,15.61-14.23,15.61h-21.4a14.28,14.28,0,0,1-13.88-10.16L2742.18,1877.1S2848.69,1769.62,2845.81,1913.84Z"/><rect class="cls-8" x="1550.44" y="774.86" width="1667.14" height="1167.38" rx="153.36"/><path class="cls-8" d="M3064.25,1944.2H1703.76c-85.64,0-155.32-68.48-155.32-152.66v-866c0-84.18,69.68-152.67,155.32-152.67H3064.25c85.65,0,155.33,68.49,155.33,152.67v866C3219.58,1875.72,3149.9,1944.2,3064.25,1944.2ZM1703.76,776.82c-83.44,0-151.32,66.72-151.32,148.74v866c0,82,67.88,148.73,151.32,148.73H3064.25c83.44,0,151.33-66.72,151.33-148.73v-866c0-82-67.89-148.74-151.33-148.74Z"/><rect class="cls-9" x="1595.7" y="808.27" width="1576.61" height="1094.54" rx="153.36"/><path class="cls-9" d="M3027.31,1904.65H1740.7c-81,0-146.89-64.21-146.89-143.14V949.56c0-78.93,65.9-143.14,146.89-143.14H3027.31c81,0,146.89,64.21,146.89,143.14v812C3174.2,1840.44,3108.31,1904.65,3027.31,1904.65ZM1740.7,810.11c-78.91,0-143.1,62.56-143.1,139.45v812c0,76.89,64.19,139.45,143.1,139.45H3027.31c78.91,0,143.11-62.56,143.11-139.45V949.56c0-76.89-64.2-139.45-143.11-139.45Z"/><rect class="cls-10" x="1691.96" y="939.13" width="1389.14" height="961.83"/><path class="cls-11" d="M3029,806.42H1740.88c-80.18,0-145.18,52.73-145.18,117.78v14.93H3174.2V924.2C3174.2,859.15,3109.21,806.42,3029,806.42Z"/><ellipse class="cls-1" cx="1778.17" cy="1551.6" rx="51.31" ry="48.96"/><ellipse class="cls-1" cx="1778.17" cy="1433.28" rx="51.31" ry="48.96"/><ellipse class="cls-1" cx="1778.17" cy="1662.98" rx="51.31" ry="48.96"/><ellipse class="cls-1" cx="1778.17" cy="1786.49" rx="51.31" ry="48.96"/><path class="cls-12" d="M1776.8,1466.43l-1.72-3.09a148.16,148.16,0,0,0-14.28-21.11,150.1,150.1,0,0,0-15.58-16.53l2.76-2.76a155.15,155.15,0,0,1,16,17,151.85,151.85,0,0,1,12.89,18.6l27-46.1,3.49,1.86Z"/><path class="cls-12" d="M1776.8,1696.27l-1.72-3.09a148.82,148.82,0,0,0-14.28-21.12,150.9,150.9,0,0,0-15.58-16.52l2.76-2.76a156,156,0,0,1,16,17,152,152,0,0,1,12.89,18.61l27-46.1,3.49,1.86Z"/><rect class="cls-13" x="1880.81" y="1465.85" width="766.43" height="52.19" rx="12"/><rect class="cls-14" x="1880.81" y="1465.59" width="685.59" height="52.19" rx="12"/><rect class="cls-15" x="1880.81" y="1568.85" width="766.43" height="52.19" rx="12"/><rect class="cls-16" x="1880.81" y="1669.25" width="766.43" height="52.19" rx="12"/><rect class="cls-17" x="1880.81" y="1769.66" width="766.43" height="52.19" rx="12"/><ellipse class="cls-18" cx="2554.57" cy="1490.27" rx="27.35" ry="26.1"/><rect class="cls-14" x="1880.81" y="1568.85" width="450.96" height="52.19" rx="12"/><ellipse class="cls-18" cx="2331.77" cy="1594.95" rx="27.35" ry="26.1"/><rect class="cls-14" x="1880.81" y="1669.25" width="571.55" height="52.19" rx="12"/><ellipse class="cls-18" cx="2446.24" cy="1695.35" rx="27.35" ry="26.1"/><rect class="cls-14" x="1880.81" y="1769.66" width="130.98" height="52.19" rx="12"/><ellipse class="cls-18" cx="2011.79" cy="1795.75" rx="27.35" ry="26.1"/><path class="cls-19" d="M2117.67,805.9l-523.86,717q-.55,143-1.1,286L2304.83,806.42Z"/><path class="cls-19" d="M2548.13,807.27Q2188.8,1355,1829.49,1902.81l488.41,4.67L2941.41,806.42Z"/><path class="cls-19" d="M3170.42,998.19l-478.69,909.29,389.38-6.52s85.53-42.3,89.31-139.45S3170.42,998.19,3170.42,998.19Z"/><rect class="cls-4" x="2225.66" y="998.19" width="763.78" height="400.53" rx="54.17"/><rect class="cls-20" x="2534.47" y="1059.8" width="4" height="274.85"/><rect class="cls-20" x="2656.79" y="1059.8" width="4" height="274.85"/><rect class="cls-20" x="2777.98" y="1059.8" width="4" height="274.85"/><rect class="cls-20" x="2415.65" y="1059.8" width="4" height="274.85"/><path class="cls-21" d="M2295.7,1334.66c.54-65.49.84-100.86.84-100.86s21.78-15.21,41.3-27.09c32.86-20,49.79-30,74.16-30.55a98.54,98.54,0,0,1,27.34,3.29c28.68,7.54,30.42,23.15,59.66,33.79,3.39,1.24,16.64,7,32.54,6.92,38-.2,48.66-32.72,105.92-59.31,20.62-9.57,34.76-16.13,55.06-18,61-5.56,90.14,39.47,130.12,36,24.76-2.17,57.78-23.32,88.23-114.53v270.35Z"/><path class="cls-22" d="M2910.87,1219.61c-25.74-1.43-63.84-1.47-104.59,7.6-52.45,11.67-63.05,28.15-98.73,28-51.15-.21-63.83-34.23-104-32.34-53.38,2.51-67.16,64.17-112.65,64-36.11-.1-40.93-39-82.61-41.24-48.27-2.59-112.55,45.79-112.55,89h615.17Z"/><rect class="cls-20" x="2293.7" y="1059.8" width="4" height="274.85"/><rect class="cls-20" x="2295.7" y="1330.99" width="616.89" height="4"/><rect class="cls-20" x="2908.87" y="1059.8" width="4" height="274.85"/><rect class="cls-11" x="2298.97" y="1358.62" width="51.06" height="7.35"/><rect class="cls-23" x="2404.96" y="1358.62" width="51.06" height="7.35"/><rect class="cls-11" x="2510.94" y="1358.62" width="51.06" height="7.35"/><rect class="cls-23" x="2622.55" y="1358.62" width="51.06" height="7.35"/><rect class="cls-11" x="2728.53" y="1358.62" width="51.06" height="7.35"/><rect class="cls-23" x="2837.84" y="1358.62" width="51.06" height="7.35"/><ellipse class="cls-18" cx="1664.59" cy="832.97" rx="442.82" ry="422.48"/><path class="cls-4" d="M1271.33,638.76,1664.59,833,1481.36,449.73S1337.89,495.29,1271.33,638.76Z"/><path class="cls-10" d="M1205.11,572.69l393.26,194.22q-91.61-191.62-183.22-383.24a429.27,429.27,0,0,0-92.82,52.75A416.21,416.21,0,0,0,1205.11,572.69Z"/><path class="cls-24" d="M1664.59,833l447.06,20.89c.55-28.34.92-197.75-140.43-325.82-24.64-22.33-131-113.56-294-117.45-88.76-2.12-158.07,22.53-195.81,39.14Q1573,641.36,1664.59,833Z"/><path class="cls-6" d="M1664.59,833l-83.09,415.09c-41.94-8-145.14-33.58-233.83-120.45-18.54-18.16-125.48-126.33-126-293.9-.26-90.32,30.52-159.4,49.62-195Z"/><ellipse class="cls-3" cx="1089" cy="2751.11" rx="404" ry="108.89"/><path class="cls-25" d="M1264.31,1553.12v31.71h38.87s11.87,149-141.45,127.65V1617l32.39-28,3.19-40.55S1257.84,1511.93,1264.31,1553.12Z"/><path class="cls-26" d="M1197.31,1548.42s34,35.58,67,27.09v-22.39S1222.09,1501.5,1197.31,1548.42Z"/><path class="cls-25" d="M1245.23,1415.75a147.81,147.81,0,0,1,30.41,44c6.31,14.11,19.82,44.35,8.28,75.78a74.69,74.69,0,0,1-6.34,13.11,101.38,101.38,0,0,1-22.81,6.57c-26.52,4.35-48.43-3-59.27-7.48l-24-15.47a21.65,21.65,0,0,1-9.28,2.12,23.37,23.37,0,0,1-8.64-1.84c-3.14-1.22-11.37-4.44-16.32-11.9-6.07-9.16-7.54-25.21,2.16-32,6.83-4.81,16-2.78,18.48-2.14C1157.89,1486.41,1153.81,1358.75,1245.23,1415.75Z"/><path class="cls-26" d="M1239.91,1412.87s-7.3,53.36-46.16,48.55c0,0-2.64,43.45-39.65,24.13s76.71-89,76.71-89Z"/><path class="cls-26" d="M1194.12,1589c3,28.46,5.56,39.92,7.47,44.52l3.69,8.9h0l13,1.37c6.69.7,22.65-2.36,61.36-17a104.78,104.78,0,0,1-22.63,14c-14.67,6.64-36,12.5-62.85,9.42Z"/><path class="cls-27" d="M1230.43,1407.71c3.19,16.82-2.52,33.33-15.19,42.68-9.33,6.89-19.63,7.82-24.36,7.94,0,0-7.08,36-33,28.08-1.1-.35-10.94-3.4-18.48,2.14a17.63,17.63,0,0,0-6.41,10.1c-3.52,13.14,7.19,25,8.13,26,12.45,13.33,32.12,10.91,34,10.64l22.14,13.17s-42.42,19.45-55.38,5c-4.71,1.63-21.55,6.86-35.71-1.3a31.11,31.11,0,0,1-5.68-4.19c-1.63.09-40.63,1.76-57.91-24.94a48.33,48.33,0,0,1-7.59-29c4.32-52.19,46.07-50.82,46.07-50.82s8.63-57.58,38.87-61.81,36-9.19,36-9.19-4.32-38.88,28.79-19.65,24.49,19.65,24.49,19.65,36.69-27,68.73,28.88c21.81,38,20.87,87.18,10.45,90.2a4.29,4.29,0,0,1-1.9.08,148.55,148.55,0,0,0-10-30.47,154.86,154.86,0,0,0-31.32-45.16Z"/><path class="cls-25" d="M1166.05,2235.07q-17.61,60.1-35.21,120.19l-147.63,272-6.84,97.18c-27-35.43-41.9-65.2-42.11-78a39.32,39.32,0,0,1,2.66-14.78c2.51-5,6.57-7.84,11.25-14.32a74.34,74.34,0,0,0,5.16-7.91,81.23,81.23,0,0,0,8.64-24.11c3.79-20.36,20.95-75.83,32.76-114,9.22-29.83,17.73-56.85,35.27-90a416.9,416.9,0,0,1,33.83-53.57l-1.44-148.34c.59,2.43,11.57,45,52.7,57.55C1138.42,2244.12,1158.83,2237.72,1166.05,2235.07Z"/><path class="cls-26" d="M1145.86,2304a47.59,47.59,0,0,0,2.71-14.48s.44-16.37-9.21-29.67c-12-16.57-44.06-23.33-76.36-10.81q.39,39.69.77,79.4a416.66,416.66,0,0,0-33.83,53.56c-17.54,33.12-26.05,60.15-35.27,90-11.81,38.18-29,93.64-32.76,114a81.32,81.32,0,0,1-8.64,24.11,76.42,76.42,0,0,1-5.16,7.91c-3.86,5.35-7.3,8.2-9.8,11.86a235.81,235.81,0,0,0,20.87,25.34,240.67,240.67,0,0,0,25.47,23.28c-4.94-7.72-12.3-19.52-19.83-32.84a47.3,47.3,0,0,1-5.85-14.79,45.08,45.08,0,0,1-.24-15.57c5.68-37.58,28.08-95.23,28.08-95.23,2.16-5.58,7.92-24.33,19.43-61.81,0,0,27.6-89.86,62.15-122.33a13.16,13.16,0,0,1,5.28-3.12c3.7-.91,8.4.23,8.4.22s-9-4.64-12.69-9.62c0,0-4.2-5.59,3.09-35.59a130.71,130.71,0,0,0,41.38,14.61A132.66,132.66,0,0,0,1145.86,2304Z"/><path class="cls-28" d="M1596.14,1418.65s29.73-38.76,42.39-36.09l26.36,5.55,12.19,11-12.49-3.33s-12.35-4-15.31-.76-6.58,10.92-6.58,10.92l16.18,6.57s2.44-9,10.13-8.77l7.69.21-15.53,24.16-19.94,8.11-28.76,8S1582.84,1434.35,1596.14,1418.65Z"/><path class="cls-29" d="M1654.18,1393.76l70,16.68-1.34,5.81L1645.82,1400S1646.79,1393.08,1654.18,1393.76Z"/><path class="cls-18" d="M1724.38,1409.77l10.57,5.76-12.12,1Z"/><path class="cls-30" d="M946.44,2619.63s3.66,38.81,36.77,58.2c0,0,9.36,30.91,15.84,35.15s24.47,6.66,24.47,16.36-66.22,8.48-71.26,3.64-4.32-48.48-20.88-54.84v22.72h-6s-4.56-47.47-3.12-53.52S931.27,2624.64,946.44,2619.63Z"/><path class="cls-28" d="M1277.48,2701.68l12.94-420.94c4-64.86-20.08-109-46.13-112.31-20.73-2.61-40.51,21-45.85,27.5l-7.56,22.66,22.68,142.16c-.61,10.37-1.31,25.58-1.44,44-.42,59.32,5.52,99.44,18.71,190.92,17.28,119.82,21.37,149.89,20.76,150-.33,0-2-8.92-3.48-16.74,24.47,37.77,80.62,31.59,80.62,31.59Z"/><path class="cls-26" d="M1248.85,2740.07l1,.37c-.24-2.12-.6-5-1.09-8.68-.69-.94-1.36-1.9-2-2.89C1247.43,2732.73,1248.2,2736.87,1248.85,2740.07Z"/><path class="cls-26" d="M1324.09,2760.69l-9.37-14.7h0s-31.29,6.91-39.21-21.59-25.91-22.72-25.91-22.72-23.76-189.15-28.8-211.81-3.6-117.44-4.32-134.61,0-50.13,0-50.13c18.72-2.06,72.54-24.39,72.54-24.39-19.59-150.07-93.49-24.32-93.5-24.32q8.32,52.17,16.64,104.33c-.6,10.37-1.31,25.58-1.44,44-.41,59.32,5.53,99.44,18.72,190.92,11.2,77.65,16.85,117.6,19.28,136.13a61.1,61.1,0,0,0,13.82,13.55l36.77,14.05A123.52,123.52,0,0,0,1324.09,2760.69Z"/><path class="cls-29" d="M1187.64,1649.94s60.9,6.42,115.75-40.06l18.14,77,10.8,581.16s-218.11,80.35-306.65-20.6c0,0,60.47-226.64,64.78-232.82s56.67-300,56.67-300v-55.43Z"/><path class="cls-30" d="M1271.27,1631.38s18.61,50.44,17.16,64.89-4.69,87.69-4.69,87.69-1.42,149.76,4.69,181.45,41.76,187.25,41.76,187.25l-18.38-456.39L1285.9,1624Z"/><path class="cls-31" d="M1264.31,1579.25s1.15,3.41,3,9.26c7.5,23.5,26.46,86.44,28.23,126.83,2.22,50.45-13,212.16,0,257.19s34.63,180.13,34.63,180.13,17.26-4.09,21.57-40.94S1328,1948,1332.33,1923.4s0-261.06,0-261.06,155.48-35.22,174.92-55.95,123.09-148.85,123.09-148.85-21.59-42.47-60.47-37l-122.54,110.08c-67.77,18.94-100.44,25.76-117.68,28.27a210.76,210.76,0,0,0-36.28,8.39A206.82,206.82,0,0,0,1264.31,1579.25Z"/><path class="cls-30" d="M1192.14,1650.29l9-.11q-4.08,160.18-8.17,320.36-12,213.72-64.71,223.33-30,5.46-73.27-55.17Q1123.57,1894.49,1192.14,1650.29Z"/><path class="cls-31" d="M1194.12,1589s-77.74,40.22-103.66,70.17-99.33,207.14-105.81,229.8,6.48,65.93,90.7,51.51c0,0-44.35,131.86-40.53,158.64s74.41,88.6,95.26,84.48,57.56-234.88,57.56-276.09S1197.36,1719.6,1194.12,1589Z"/><path class="cls-25" d="M1159.08,1859.22l24.24-9.43,23.76-39.39s57.22-3.35,66.94,0a3.77,3.77,0,0,1,2.37,1.8c2.24,4.7-10.51,17.55-26.12,21.86-6.69,1.85-8.13.54-13.07,2.57-9.61,3.94-14.7,13.23-17.52,20.72l-72.23,45S1128.77,1866.59,1159.08,1859.22Z"/><path class="cls-31" d="M1075.35,1940.45l96.46-33s-20.16-23.35-10.08-65.93c-19.62.29-40.55,1.24-62.63,3.09-19.91,1.68-38.75,3.92-56.43,6.53,0,0-49.38-1.38-58,37.77S995.45,1949.72,1075.35,1940.45Z"/><path class="cls-32" d="M1243.07,1480.31a170.42,170.42,0,0,0,20.55,9.43,6.21,6.21,0,0,1,3.64,2.61c2.54,4.79-6,12.9-6,12.9a17.4,17.4,0,0,0-3.83-9.15,21.78,21.78,0,0,0-4.83-4A30.12,30.12,0,0,1,1243.07,1480.31Z"/><path class="cls-33" d="M1245,1527.47a37.16,37.16,0,0,1-15-3.21l1.64-3.65a32.36,32.36,0,0,0,19.89,2.16,31,31,0,0,0,13.21-6.45l2.56,3.07a34.79,34.79,0,0,1-22.33,8.08Z"/><ellipse class="cls-33" cx="1205.64" cy="1483.74" rx="5.92" ry="9.97" transform="matrix(0.84, -0.54, 0.54, 0.84, -607.93, 878.73)"/><ellipse class="cls-33" cx="1258.76" cy="1458.66" rx="5.92" ry="9.97" transform="translate(-586.17 903.33) rotate(-32.46)"/><path class="cls-34" d="M1254.78,2703.76c9.45,4,11,11.79,18.75,22.79,2.36,3.34,20.4,29,39.49,27.57,6.33-.46,7.57-3.51,13.8-5.48,3.48,4.65,7.77,10.09,13,16.07,12.05,13.72,16.17,15.46,15.64,20.14-.88,7.75-15.45,15.11-28.47,15.65-18.63.78-31.34-12.37-33.61-14.8a60.38,60.38,0,0,0-10.85-17.51,65.16,65.16,0,0,0-26.28-17.71l-1.74,26.9-12.9-1.18q-1.1-24.76-2.2-49.54l4.17-25A27.35,27.35,0,0,1,1254.78,2703.76Z"/><path class="cls-33" d="M1184.93,1483.86c-.8-13.61,14.24-20.22,14.88-20.5l1.58,3.68c-.13,0-13.1,5.8-12.47,16.59Z"/><path class="cls-35" d="M1137.22,1490.5c-.54.55-1.37,1.38-2.4,2.34-2.88,2.71-4.86,4.19-5.57,4.81-4.94,4.33,5.16,18.08,1.29,31.65-.43,1.48-2.56,9-9.12,12.36-7.66,4-19,1.2-28.67-7.1,1,3.38,3.5,11.43,11.46,16.86,7.28,5,19,7.72,37.72,2a25.48,25.48,0,0,0,4,3.09c10.24,6.49,22.55,4.08,28.2,3,12-2.35,23.89-8.51,23.22-11.1-.12-.46-.58-.55-2.31-1.37-.9-.42-3.77-2.23-9.52-5.85-4.48-2.82-6.77-4.34-7.72-4.94-11.59-7.28-21.5-1.11-32.5-8.39-7.72-5.12-10.71-13.38-11.21-14.75a29.1,29.1,0,0,1-1.65-8.77,20.68,20.68,0,0,1,.6-5.7A21,21,0,0,1,1137.22,1490.5Z"/><path class="cls-33" d="M1262.63,1444.38a11.62,11.62,0,0,0-6.73-3.21,11.79,11.79,0,0,0-8,2l-2.31-3.26a15.79,15.79,0,0,1,10.74-2.76,15.39,15.39,0,0,1,9.1,4.35Z"/><ellipse class="cls-1" cx="1165.19" cy="1537.53" rx="12.64" ry="12.06"/><path class="cls-26" d="M1153.08,1499.57l13.07,20.11c-6.2,2.77-13.54.42-16.59-5A11.76,11.76,0,0,1,1153.08,1499.57Z"/><ellipse class="cls-36" cx="1199.64" cy="1512.74" rx="20.92" ry="19.96"/><path class="cls-36" d="M1287.93,1500.47a130.8,130.8,0,0,0-10.59-37.26l-.15-.34a20.34,20.34,0,0,0-10.26,11.79,18.13,18.13,0,0,0-.92,5.87c.24,10,9.56,16,10.35,16.43A24.46,24.46,0,0,0,1287.93,1500.47Z"/><path class="cls-37" d="M1171.81,1907.48l-96.46,33-11,34.2S1165.09,1922.59,1171.81,1907.48Z"/><path class="cls-37" d="M1114.22,1843.5l47.51-2,10.08,12.72,11.51-4.48a24.28,24.28,0,0,0-7.76-8.76c-4.18-2.83-10.44-5-32.19-2.57A251.66,251.66,0,0,0,1114.22,1843.5Z"/><path class="cls-38" d="M1132.22,1657.5a263.47,263.47,0,0,1,10.55,75,267.19,267.19,0,0,1-24.72,110.19s-76.53-2.46-99.57,28.1c0,0,21.49-38.34,87.82-34.83a252.44,252.44,0,0,0,30.23-91.19A248.75,248.75,0,0,0,1132.22,1657.5Z"/><path class="cls-38" d="M1022.65,1794.25s-57.44,118.38-12.09,136.93,156.06-32,156.06-32l5.19,8.28-96.46,33s-71.7,11.56-87.44-16.42S987.3,1872,1022.65,1794.25Z"/><path class="cls-38" d="M1183.32,1954.26s-68.85,174.2-97.89,176.77-50.61-31.94-50.61-31.94a70.44,70.44,0,0,0,4.6,13.22,77,77,0,0,0,15.37,21.68s38.39,40,68.09,49.05a14.48,14.48,0,0,0,7.2.53c9.08-1.86,13.66-13.61,15.81-19.58,11.7-32.42,16.32-72,16.32-72,2.15-18.41,6-36.59,8.77-54.92C1174.2,2015.64,1178.41,1987.52,1183.32,1954.26Z"/><path class="cls-38" d="M1332.33,1659.14s-3.6-50.79,9.36-70.17l18.71-12.15Z"/><polygon class="cls-38" points="1264.31 1584.83 1267.33 1584.83 1264.31 1575.51 1264.31 1584.83"/><path class="cls-38" d="M1405.64,1542.74s21.16-5.55,59.46,3.38,44.77,17.34,44.77,17.34-28.07-29.71-36-30,106.54-112.25,106.54-112.25l-10.08-.72-122.55,110.8Z"/><path class="cls-30" d="M1285.43,1747.83s-52.77,25.11-70.79,52.52l73.79-36.23Z"/><path class="cls-30" d="M1288.43,2022.86c.71,6.18-76.31,117.87-116.62,119.71Z"/><path class="cls-30" d="M1281.58,2004.32s-29.22,32.64-72.38,35.38-37.39-9-37.39-9S1226.94,2036.2,1281.58,2004.32Z"/><path class="cls-30" d="M1064.3,2152.66s-44.17,109.29,107.25,145.65c0,0-107.72,4.76-145.87-50.87L1055,2138.7Z"/><path class="cls-28" d="M3097.85,2473.78s-11.32-12.4-11.53-38.51a20,20,0,0,0-.18-2.58c-.72-24.1-3.07-93.92-9.65-169.46-1.54-17.69-4.12-44.48-18.72-75.54a199.45,199.45,0,0,0-18.58-31.59q8.92-80.35,17.86-160.71c-21.71-53.5-67.85-81.57-95.7-74-30.75,8.4-57.95,65.45-31.58,130.68l30.83,101.24c59.13,153.08,87.49,269.46,87.12,295.32-.2,13.51-1.34,30.9-1.34,30.9-1.12,17.12-1.8,27-4.31,39.83a208.39,208.39,0,0,1-7,26.29s13.45,24.19,27.13,10.11c32.11-33.05,35.63-68,35.63-68Z"/><path class="cls-26" d="M2908.35,1504.85l4.9,41.62s19.91,39.1,48,32.16,1.72-101.76,1.72-101.76S2903.45,1463.22,2908.35,1504.85Z"/><path class="cls-28" d="M3054,1663.44l44.81,47.28,52.9,155.56,38.87,20.6s18.36,28.84,20.52,35-22.93,3.09-32-4.13-37.53-18.54-46.51-29.87l-6.81-20.6s-56.89-96.38-71.8-140.7l-47-47.06S3013.51,1630.58,3054,1663.44Z"/><path class="cls-39" d="M3018.9,1576.46l41,68.14s-.45,8.31-5.93,18.84c-6.48,12.44-20,28-48.05,36.57C2954.12,1715.87,3018.9,1576.46,3018.9,1576.46Z"/><path class="cls-40" d="M3063.43,2513.21c-4,35.43-29.19,25.61-29.19,25.61h0q-2.88,4.38-6.26,8.89c-1.82,2.41-3.64,4.72-5.46,6.9-1.79,7.72.46,11.61,1.56,13.11,6.54,8.91,25.71,6,37.08.93a46.64,46.64,0,0,0,16.06-11.93,161.37,161.37,0,0,1,8.33-26.7,164.25,164.25,0,0,1,12.13-23.9v23.93h8.77q-.45-25.58-.91-51.14l-17.64-24.81S3067.41,2477.79,3063.43,2513.21Z"/><path class="cls-25" d="M2996.64,2401.5a80.81,80.81,0,0,0-9.29-26.32c-3.3-16.39-18.14-89.36-35.39-149.72-3-10.54-8.07-27.59-20.88-46.7a159.18,159.18,0,0,0-36.71-38.46l160.53-161.39c-59.29-37.76-129.52-38.9-172.89-5.56-27.32,21-36.93,50.27-40.54,65.63l-24.07,119.86a1542.1,1542.1,0,0,1,104.37,174.44q17.37,33.94,32.05,66.56h0q-5.46,38.14-10.93,76.29s27.44-10.53,36.27-25.18S2998.9,2416.15,2996.64,2401.5Z"/><path class="cls-26" d="M2835.3,2069.73s79.69,17.16,103.7,11.85l-48,56.06-3.82,4.46s-9.69-8-36.69,5.41a82.3,82.3,0,0,1,35.77,4.85c30.44,11.67,43.91,39.89,52.88,59.41,15.79,34.4,10.47,49.08,21.38,92.09a350.48,350.48,0,0,0,30,77.44c-12.05-46.87-19.54-79-24.52-102.63a512.66,512.66,0,0,0-17.22-63.17c-3.28-9.56-4.93-14.34-7.33-19.61-6.28-13.75-19-34.72-47-55.59l63.59-63.64-120.82-18.77Z"/><path class="cls-41" d="M2970.91,2433.78c-4,35.42-29.19,25.6-29.19,25.6h0q-2.88,4.38-6.26,8.89c-1.81,2.42-3.64,4.72-5.46,6.91-1.79,7.72.46,11.61,1.56,13.1,6.54,8.91,25.71,6,37.08.93a46.42,46.42,0,0,0,16.06-11.93,162.92,162.92,0,0,1,8.33-26.7,166.27,166.27,0,0,1,12.13-23.9v23.93h8.77q-.45-25.56-.91-51.13l-17.64-24.82S2974.89,2398.35,2970.91,2433.78Z"/><path class="cls-25" d="M2796.76,1601.41l-31.17,13.36s-105-67.32-119.79-78-51.62-63.51-51.62-63.51-42.49-7.69-46.68,1.16-15.78,22.13,34.4,35.34c0,0,.69,20.31,8.13,26.76s19.24,12.78,19.24,12.78l14.68,3.65c18.91,17.43,46.84,42.9,82.07,74.18,28.18,25,44.38,39,66.41,38.24,12.34-.39,25.53-5.36,43.46-12.11,22.05-8.3,23.61-12.33,24-13.78C2843.71,1625.29,2803.42,1604.75,2796.76,1601.41Z"/><path class="cls-26" d="M2668.43,1551.93s98.67,77.17,101.87,77,25.09-9.46,25.09-9.46l-8.75-13.74-21,9Z"/><path class="cls-42" d="M3005.37,1760s51.33,47.68,70.48,105.63-20.25,203.68-20.25,203.68-232.68,27.06-220.78-20.33c3.65-14.52,32.81-150.07,39.3-162.16s13-110.82,13-110.82S2934.88,1654.35,3005.37,1760Z"/><path class="cls-41" d="M3005.37,1760.58c-3.42-5.12-6.79-9.7-10.09-13.79-.71-.88-43.54-16.32-73.3-19.56-22.11,16.8-34.9,49.34-34.9,49.34s-6.48,98.74-13,110.83-35.65,147.64-39.3,162.16c-3.52,14,14.36,21.52,41.29,25.13-30.51-28.1-15.93-91.4-7.29-131.57s39.25-97.87,39.25-97.87l-23.41,15.45,17-71.44,34.54-19s13.65,8,38,8.25,19.88-1.25,32.82,0,55.2,56.38,55.2,56.38C3039.23,1792,3005.37,1760.58,3005.37,1760.58Z"/><path class="cls-41" d="M3046.89,1911.19s-61.24,38.81-79.77,77.7C2967.12,1988.89,2976.17,1902.56,3046.89,1911.19Z"/><path class="cls-43" d="M2932,1522.22a212.16,212.16,0,0,0-44.5,18.52c-19.08,10.67-28.48,20-39.63,28.3-15.31,11.39-39.49,25-77.61,33a123.27,123.27,0,0,0,8,42.63,133.6,133.6,0,0,0,31.21,47.48l38.42-18.51a40.72,40.72,0,0,0,3.42,18c5.08,11.57,14.2,18,18.18,20.47l-6.4,55.6s12.81,15.55,28.81,8.29,40.1-16,40.1-16,70.34,5.79,76.74,0,5.57-17.94,10.79-27.11-7.59-56.24-7.59-56.24l20.81-102.49S3041,1461.6,2932,1522.22Z"/><path class="cls-25" d="M2888.93,1370c-14.78,19.1-18,27.59-18,31.77a28.5,28.5,0,0,1-1.81,10.88,33,33,0,0,1-2.27,4.63c-4.93,8.23-17.76,16.38-19.56,17.51a13.26,13.26,0,0,0,.62,8.3,14.78,14.78,0,0,0,8.26,7.69,234.82,234.82,0,0,0,2.89,23.75c3.88,22.32,6.66,37.44,16.63,41.3,4.07,1.57,7.69.67,18.46-2.81,11.36-3.66,26.16-8.73,43.47-15.47l12.12-15a41.39,41.39,0,0,0,17.37-5.76c3.8-2.34,8-4.94,10.33-10.09s2.75-12.77-1.77-17.24a16,16,0,0,0-9.78-4.45c-2.3-.12-4.38.39-4.9-.55-.32-.59.23-1.31,2-4.68.6-1.1,1.08-2,1.4-2.65,6.81-29-6.25-56.91-29.22-67.43C2914.4,1360.1,2893.06,1368.31,2888.93,1370Z"/><path class="cls-26" d="M2880.52,1382.62s5.57-6.36,10.25-.86S2883,1436,2961,1444.41l8.58-32.44s-29.87-43.61-34.55-44-36.71-7.55-37.79-7.9S2868.82,1357.72,2880.52,1382.62Z"/><ellipse class="cls-33" cx="2888.91" cy="1421.68" rx="11.17" ry="6.65" transform="translate(480.28 3558.38) rotate(-67.78)"/><path class="cls-44" d="M2865.33,1473.83l20.4-4.49a24.57,24.57,0,0,1-3.33,7.47,23.78,23.78,0,0,1-13.88,9.57Q2866.93,1480.1,2865.33,1473.83Z"/><ellipse class="cls-36" cx="2904.17" cy="1451.14" rx="24.72" ry="23.58"/><path class="cls-32" d="M2867.42,1416.2q-5.62,17.28-11.23,34.57s-11.39-3-8.88-16a67.19,67.19,0,0,0,9.29-6.81c2.34-2,4-3.82,5-4.82A82.08,82.08,0,0,0,2867.42,1416.2Z"/><path class="cls-26" d="M2958.65,1453.24l-8.3,16.44S2974.8,1470.46,2958.65,1453.24Z"/><path class="cls-33" d="M2908.76,1411.51c-13.93-12.58-18.82-11.09-18.85-11.07l-2.46-3.15c1.45-1.13,7.47-3.66,24,11.25Z"/><path class="cls-45" d="M3168.93,1571.63a114.36,114.36,0,0,0-7-16.05,124.19,124.19,0,0,0-9.5-14.82c-.9-1.16-1.74-2.37-2.69-3.5l-2.81-3.42-2.95-3.3c-1-1.11-2.05-2.15-3.07-3.22a129.8,129.8,0,0,0-13.34-11.84,102.35,102.35,0,0,0-15.17-9.79c-1.37-.67-2.71-1.38-4.1-2s-2.79-1.27-4.24-1.8-3-1.11-4.17-1.59l-1.9-.75c-.64-.25-1.23-.59-1.85-.88a55.89,55.89,0,0,1-13.44-9.56,94.76,94.76,0,0,1-11-12.61,163.31,163.31,0,0,1-16.83-29.2q-3.56-7.68-6.59-15.58c-1-2.64-2-5.29-2.87-8-.45-1.33-.91-2.66-1.34-4s-.86-2.72-1.19-4c-.44-1.64-.83-2.85-.89-3.06-1.88-6.54-3.86-11-5-17.41-.52-2.89-.65-4.88-.73-5.69-.89-8.72-12.11-23-26.63-34.33-25.76-20-72.24-32.57-110.14-13a87.38,87.38,0,0,0-30,25.62,30.7,30.7,0,0,0-1.83,9.68c-.78.24-10.52,3.38-12.84,11.74s3.59,18.49,14.79,22.1a36.78,36.78,0,0,0,1-4.93c.41-2.94.08-3.3.37-5.49.44-3.41,1.66-5.94,3.34-9.4.35-.72,0,0,2.41-4.34a12.67,12.67,0,0,1,3-4,8.87,8.87,0,0,1,.78-.58c-.08-.91-.6-9,5.21-13,1.06-.73,3.8-2.63,7.2-1.89,3.24.7,4.9,3.61,5.4,4.46,3.4,5.84-.38,11.25-.72,18.54-.31,6.8,2.55,11.66,7.2,19.58,8,13.67,28.42,27.94,56.51,36a12.42,12.42,0,0,1,6.49-1.1,12.28,12.28,0,0,1,7.88,4.2c4.8,5.72,1.44,16.68-3.82,23.12-7.72,9.45-20.07,9.92-22.11,10l-1.57-1.18a154.29,154.29,0,0,0-10.09,12.91q-4.71,6.66-8.78,13.74a138.2,138.2,0,0,0-13.1,29.93,93.13,93.13,0,0,0-3.21,16.22,80.14,80.14,0,0,0-.42,8.36c.06,1.4,0,2.81.2,4.21l.18,2.11.28,2.11a56.77,56.77,0,0,0,14.59,30.78,72.23,72.23,0,0,0,13.25,11.26,96.37,96.37,0,0,0,15.15,8.26,149,149,0,0,0,16.1,5.85c5.45,1.63,11,2.91,16.53,4q4.15.81,8.34,1.46c2.79.41,5.58.79,8.37,1.1q8.39,1,16.79,1.41a304.52,304.52,0,0,0,33.51-.07l6.7,1.44c14.43,4.61,22.29,15.76,20.38,24.56-1.15,5.32-5.66,8.78-8.34,10.46,0,0,35.35,12.38,51.5-16.45,0,0,4,7.78,0,13.56,6.24-1.87,24.82-8.31,36.17-26.15.71-1.11,1.36-2.25,2-3.4l1.58.63,1.69-4,.85-2,.71-2c.47-1.38,1-2.75,1.39-4.14l1.12-4.2a87.14,87.14,0,0,0,2.5-17.22A93.82,93.82,0,0,0,3168.93,1571.63Zm-129.5,58.08c-5.62-.4-9.58-.88-16.38-1.76-5.43-.7-10.85-1.46-16.22-2.35-2.69-.44-5.37-.94-8-1.46s-5.32-1.06-8-1.65a166.67,166.67,0,0,1-30.47-9.76c-9.6-4.24-18.53-9.78-25.3-17.1a53.1,53.1,0,0,1-8.43-12.06,49.8,49.8,0,0,1-4.44-13.93c-1.63-9.71-.69-19.93,1.79-29.84a127.24,127.24,0,0,1,6.3-18.76,61.31,61.31,0,0,0-.65,9.63c.32,22.7,13.38,38,22.66,48.94,29.11,34.2,70.22,44.38,88.2,47.67q2.45.73,5,1.63c1.18.41,2.33.83,3.46,1.25C3046.65,1630.1,3043.36,1630,3039.43,1629.71ZM3140,1551.1a245.91,245.91,0,0,0-51-39.58c-8.35-5.31-20-14.27-28.36-28.46-5.8-9.82-6.73-16.5-11.4-35.42.22.54.44,1.09.68,1.63a169.07,169.07,0,0,0,16.73,30.52,94.34,94.34,0,0,0,11.59,13.54,62,62,0,0,0,14.91,10.72c.7.34,1.38.73,2.12,1l2.2.89c1.55.62,2.73,1.06,4.07,1.58s2.58,1.12,3.88,1.68,2.52,1.26,3.79,1.89a109.3,109.3,0,0,1,14.26,9.2c18,13.75,32.19,32.34,39.9,53.1a96.54,96.54,0,0,1,4.28,16c.21,1.07.38,2.15.52,3.23a73.89,73.89,0,0,0-11.07-22.11A238.51,238.51,0,0,0,3140,1551.1Z"/><path class="cls-39" d="M2847.93,1673.6s59.78-30.24,73.46-54.1a152.76,152.76,0,0,1-37.1,49.67,158.08,158.08,0,0,1-32.94,22.44C2850.79,1690.59,2850.25,1689.47,2847.93,1673.6Z"/><path class="cls-39" d="M2865.54,1746.75c7.84,8.35,22.31,21.45,36.07,18.34,1.64-.37,3.17-.94,11.84-7,21.88-15.25,27.71-22.46,36.71-21.63a18.3,18.3,0,0,1,9.72,4.12,25,25,0,0,0-13.32.34c-1.92.6-9,2.82-12.6,9.7A17.71,17.71,0,0,0,2932,1760l-43.19,17.93s-17.85.61-25.72-10.22Z"/><path class="cls-39" d="M2957.74,1757.21s44.65-6,47.35,1.65c.16.46.58,1.82,1.49,2,2.55.43,8.19-9,6.32-12.45C3010.79,1744.44,2997.39,1744.89,2957.74,1757.21Z"/><path class="cls-41" d="M3079.55,1939.51s-42.09,125.2-105.36,135.18l81.41-5.41S3079.34,1995.11,3079.55,1939.51Z"/><path class="cls-26" d="M3059.93,1669.7s-16,37.22-31.24,31.57l-7.3-7.32s21.27-8.09,32.61-30.51Z"/><path class="cls-46" d="M2942.12,2092.34c61.91-21.15,83-15.86,90.7-6.75,14.67,17.44-3.84,68.22-3.84,68.22a62.81,62.81,0,0,0-27.35,8.24,57.37,57.37,0,0,0-8.91,6.41,110.55,110.55,0,0,1,13.63-4.92s12.25-2.95,22.63-1.49c28.3,4,44.68,161.43,52,229.77,3.15,29.24,5.74,52.24,6.88,62.28-.81-110.56-9.07-192.74-16.09-222.12-7.9-33.06-18.35-51.5-18.35-51.5s-1-1.83-14.27-24.38h0l9.6-86.37-90.83,6.93Z"/><path class="cls-47" d="M3074.8,1671.46c39.17,6.36,42.18-54.43-18.29-68.59s-92.85-52.46-106-70.31c-12.31-16.76,3.28-46.73,6.46-51a34,34,0,0,1-7,1l-1.57-1.18a154.29,154.29,0,0,0-10.09,12.91q-4.71,6.66-8.78,13.74a138.2,138.2,0,0,0-13.1,29.93,93.13,93.13,0,0,0-3.21,16.22,80.14,80.14,0,0,0-.42,8.36c.05,1.4.05,2.81.2,4.21l.18,2.11.28,2.11a56.84,56.84,0,0,0,14.59,30.79,72.57,72.57,0,0,0,13.25,11.25,96.37,96.37,0,0,0,15.15,8.26,151.86,151.86,0,0,0,16.09,5.86c5.46,1.62,11,2.9,16.54,4q4.15.81,8.34,1.46t8.37,1.1q8.38,1,16.79,1.41a304.52,304.52,0,0,0,33.51-.07l6.7,1.44c14.43,4.61,22.29,15.76,20.38,24.56C3082,1666.32,3077.48,1669.78,3074.8,1671.46Zm-35.19-41.7c-5.62-.39-9.58-.88-16.38-1.76-5.44-.7-10.85-1.46-16.22-2.35-2.69-.44-5.37-.94-8-1.46s-5.32-1.06-8-1.65a166.67,166.67,0,0,1-30.47-9.76c-9.6-4.24-18.53-9.78-25.3-17.1a53.1,53.1,0,0,1-8.43-12.06,49.7,49.7,0,0,1-4.44-13.93c-1.63-9.71-.69-19.93,1.79-29.84a127.24,127.24,0,0,1,6.3-18.76,61.31,61.31,0,0,0-.65,9.63c.32,22.7,13.38,38,22.66,48.94,29.11,34.2,70.22,44.38,88.2,47.67,1.63.49,3.31,1,5,1.63,1.19.41,2.34.83,3.46,1.25C3046.83,1630.15,3043.54,1630,3039.61,1629.76Z"/><path class="cls-47" d="M2913,1377.87s-14.49,39.3,52.89,67.09c0,0-53.46-30.28-44.52-71.07,2.11-9.61.05-16.44-4.12-20.72-7.42-7.62-28.58-5.94-36.75,6.44-6.7,10.14-1.39,22.26-.78,23.59-.22-1.83-1.65-15.32,8.15-23.31,1.66-1.35,6.25-5.09,11.5-4.35C2906.49,1356.53,2912.77,1365.45,2913,1377.87Z"/><path class="cls-48" d="M3672.58,2652c-16.47,26.94-29,45.53-39.35,59.52-3.38,4.56-9.28,12.33-7.68,21.52,1.84,10.56,12.54,17,17.57,19.67a44.11,44.11,0,0,0,44.81-10.49l47.46-74.86L3728,2625c-3.38-.62-25.4-4.34-42.54,9.62A44.33,44.33,0,0,0,3672.58,2652Z"/><path class="cls-49" d="M3553.55,2628.78c-16.47,26.95-29,45.54-39.35,59.52-3.38,4.57-9.28,12.34-7.68,21.52,1.84,10.56,12.54,17,17.57,19.67A44,44,0,0,0,3568.9,2719l47.46-74.86-7.36-42.37c-3.38-.63-25.4-4.34-42.54,9.61A44.33,44.33,0,0,0,3553.55,2628.78Z"/><path class="cls-50" d="M3512.23,1978.32l30.39,644a68.48,68.48,0,0,0,35.54,16.14c26,3.52,45.15-9.2,49.28-12.09l32.37-617.33S3656,1730.41,3512.23,1978.32Z"/><path class="cls-51" d="M3562.92,2022.25c-8-8.81,15.84,17.79,24.59,25.93,3.34,3.11,8.58,7.78,15.53,13.12,9.59,69.57,19.75,139.08,26.52,208.93q18,185.83,36,371.66c21.66,18.55,36.41,20.35,45.85,18.59,13.28-2.47,31.83-14.9,31.79-14.88v-.15c0-.27,27.61-188.76,23.15-345.31-.3-10.65-.63-16.93-1-21.7-.24-3.39-.55-8.41-1.08-13.41a199.26,199.26,0,0,0-4.78-27.1c-6.58-27.91,7.51-139.65,11.4-203.69.92-15,1.95-38.65,1.41-68-60.33-56.54-99.76-63.89-125.76-57.37-38.07,9.54-82.91,57.73-82.91,57.73S3563.41,1986.05,3562.92,2022.25Z"/><path class="cls-52" d="M3473.07,1642.64S3545.3,1561,3588.44,1554s72.7-37.79,191.86,60.84c0,0,57,160.61,27.58,222.86a54.19,54.19,0,0,1-10.87,21.16,58.43,58.43,0,0,1-25.13,17.31,440.7,440.7,0,0,1,5.25,57.47c.65,26.4-1.44,40.19-11.27,46.53a21.49,21.49,0,0,1-6.56,2.77c-16.8,3.66-34.68,6.79-53.57,9.12-78.55,9.7-147.78,2.28-201.78-9.08a76.47,76.47,0,0,1-2.39-46.9c6.21-24.86,5.07-50.88,8-76.27S3507.88,1778.37,3473.07,1642.64Z"/><path class="cls-53" d="M3572.41,1559.22s21.14,119.27,110.29-7.29l-16-5S3597.46,1544.27,3572.41,1559.22Z"/><path class="cls-54" d="M3775.31,1902.81h0l0-.08c-.79-5.9-1.7-12.2-2.72-18.94q-3.11-20.57-6.32-39.21h0c-8.17-47.73-16.31-85.44-21-109.15-5.19-26-12.24-65.29-17.94-114.26a85.8,85.8,0,0,0-16.26,16.42c-40.71,54.48,7.42,134.13,27.77,207h-106s67,51.35,113.92,60.22a87.05,87.05,0,0,1-10.83,36.69c-10.53,18.58-32.82,41-85.26,54.81,15.11-.35,36.71-1.34,62.58-4.33,29.63-3.43,44.61-5.27,52.68-11.77C3780.5,1968.4,3781.25,1947,3775.31,1902.81Z"/><path class="cls-28" d="M3649.65,1493l17.59,55.69c-21.24,36.91-49.89,53.5-64.92,46.95-12.17-5.31-14.36-25.32-14.84-33.06q-1.11-20.15-2.21-40.3c9.4-30.54,31.06-47.1,46.67-44C3634.37,1478.7,3642.42,1480.79,3649.65,1493Z"/><path class="cls-26" d="M3587,1553.42s1.52,73.27,76.64,1.23a157.49,157.49,0,0,1-12,16c-10.17,11.91-18.59,21.52-32.11,25.13-4.24,1.13-10.8,2.79-17.21-.14-6.1-2.8-8.77-8.26-11.15-13.31A52.19,52.19,0,0,1,3587,1553.42Z"/><path class="cls-26" d="M3649.65,1493a63.61,63.61,0,0,1-16,30.3c-17.85,18.78-41.61,20.81-47.15,21.14q-.61-11.07-1.22-22.16c5.91-25.65,25.21-41.67,42.65-40.49C3637.92,1482.44,3645.47,1488.64,3649.65,1493Z"/><path class="cls-48" d="M3780.3,1614.86s-114.67-45.51-51.45,163.67a70.22,70.22,0,0,1-12.43,2.59c-19.33,2.22-35.13-4.16-43.4-8.34l-33.36,61.35a83.31,83.31,0,0,0,19.18,15.66c8,4.77,14.58,6.82,23.75,9.62,0,0,50.42,15.4,74.57,17.64a42.84,42.84,0,0,0,14-.84A45.55,45.55,0,0,0,3780,1873c23.87-10.91,30.39-40.59,33.71-55.7C3828.86,1748.55,3787.06,1633.15,3780.3,1614.86Z"/><path class="cls-28" d="M3643.67,1769.76,3596,1727.28s-11.76-1.7-13.64,5.36-9.94,11-9.94,11l-5.64,1.92-7.19,15.55s22.89,32.64,60.12,46.86S3643.67,1769.76,3643.67,1769.76Z"/><path class="cls-55" d="M3596,1727.28l40.93-41.86s9.16-1.13,7.35,7l-39.14,43Z"/><path class="cls-28" d="M3557.29,1400.57s-24.23,124.6,23.86,122,64.23-23.78,64.23-23.78l4.27-5.78c3.3.06,21.23.09,31.84-12.61,1.41-1.7,11.89-14.25,5.8-22.8-4-5.65-14-7.77-23.78-3.92C3663.51,1453.64,3632.91,1263.29,3557.29,1400.57Z"/><path class="cls-26" d="M3668.11,1461l-8.05,19.9c11.3-.5,18.05-7.13,17.5-11.93C3677.17,1465.56,3673,1462.57,3668.11,1461Z"/><polygon class="cls-12" points="3371.85 1644.65 3530.12 1632.84 3607.91 1862 3447.84 1865.68 3371.85 1644.65"/><path class="cls-56" d="M3418.31,1657.56a13.87,13.87,0,0,1-11.59-6.71c-2.56-4.27-2.86-10.9,1.53-15.31,3-3,8.63-5.22,13.86-2.9a12,12,0,0,1,6.47,7.69l-3.85,1.07a8.11,8.11,0,0,0-4.25-5.1c-3.34-1.49-7.26-.09-9.4,2.06-2.94,3-2.7,7.49-.93,10.43,2.06,3.43,6.28,5.4,9.82,4.58a8,8,0,0,0,3.93-2.33l2.9,2.76a12,12,0,0,1-5.93,3.47A11.62,11.62,0,0,1,3418.31,1657.56Z"/><path class="cls-56" d="M3438,1656.62a13.87,13.87,0,0,1-11.59-6.71c-2.57-4.27-2.87-10.9,1.52-15.31,3-3,8.64-5.22,13.86-2.9a12.06,12.06,0,0,1,6.48,7.7l-3.86,1.06a8.11,8.11,0,0,0-4.24-5.1c-3.35-1.49-7.26-.08-9.4,2.07-2.95,3-2.7,7.48-.93,10.42,2.06,3.43,6.27,5.4,9.81,4.59a8.08,8.08,0,0,0,3.94-2.33l2.89,2.76a12,12,0,0,1-5.93,3.46A11,11,0,0,1,3438,1656.62Z"/><path class="cls-56" d="M3459.07,1655.62a13.86,13.86,0,0,1-11.59-6.7c-2.57-4.27-2.87-10.9,1.52-15.31,3-3,8.63-5.22,13.86-2.9a12,12,0,0,1,6.48,7.69l-3.86,1.06a8.08,8.08,0,0,0-4.24-5.1c-3.34-1.48-7.26-.08-9.4,2.07-3,3-2.7,7.48-.93,10.42,2.06,3.43,6.28,5.41,9.81,4.59a8,8,0,0,0,3.94-2.33l2.89,2.76a11.89,11.89,0,0,1-5.93,3.47A11.52,11.52,0,0,1,3459.07,1655.62Z"/><path class="cls-56" d="M3478.92,1652.84a13.86,13.86,0,0,1-11.59-6.7c-2.56-4.27-2.86-10.9,1.53-15.31,3-3,8.63-5.22,13.85-2.9a12,12,0,0,1,6.48,7.69l-3.85,1.07a8.12,8.12,0,0,0-4.25-5.11c-3.34-1.48-7.26-.08-9.4,2.07-3,3-2.7,7.48-.93,10.43,2.06,3.43,6.28,5.4,9.82,4.58a8,8,0,0,0,3.93-2.33l2.9,2.76a12,12,0,0,1-5.93,3.47A11.61,11.61,0,0,1,3478.92,1652.84Z"/><path class="cls-32" d="M3590.75,1447.07s-13,17.08-17,18,1.32,13.89,10.17,8.16S3590.75,1447.07,3590.75,1447.07Z"/><path class="cls-44" d="M3581.5,1486.85l35.85-6.35S3603.28,1517.85,3581.5,1486.85Z"/><ellipse class="cls-33" cx="3565.19" cy="1436.61" rx="7.79" ry="5.19" transform="translate(1709.99 4803.02) rotate(-83.09)"/><ellipse class="cls-33" cx="3619.87" cy="1444.77" rx="7.56" ry="4.8" transform="translate(1754.2 4866.77) rotate(-83.16)"/><path class="cls-26" d="M3556.15,1408.63s37.81-30.18,55.49-21.94c0,0-20.73,50.81,29.31,50.81,0,0,4,20.38,22.56,16.14s-8.27-53-8.27-53l-46.31-31.82s-34.85-8-42.38-.68S3556.15,1408.63,3556.15,1408.63Z"/><ellipse class="cls-36" cx="3632.91" cy="1471.33" rx="20.76" ry="19.8"/><path class="cls-36" d="M3552.45,1441.51a252.31,252.31,0,0,0-.46,35.89,19.89,19.89,0,0,0,12.14-15.93A19.66,19.66,0,0,0,3552.45,1441.51Z"/><path class="cls-53" d="M3638,1757.77a62.92,62.92,0,0,1,29.15,3.29,60.18,60.18,0,0,1,21.3,13.31,234.41,234.41,0,0,0-6.54,22.54c-3,12.69-2.46,15.14-4.39,22.59-1.43,5.49-8.7,33.44-23.07,35.66l-27-13.23h0s-11.66-10.53-15.84-12c-7.81-2.75,18.17-20.56,25.62-41.92C3641.3,1776.11,3639.72,1764.92,3638,1757.77Z"/><path class="cls-26" d="M3408.69,1799.73c-.69-4.22-24-48.06-24-48.06l14.11-37.49,19.31,2s15.16,20.25,6.26,31,2,26.75-2.81,42.13S3408.69,1799.73,3408.69,1799.73Z"/><path class="cls-57" d="M3612,1384.44s-10.11,57.33,30.28,45.94c0,0,16.82,24.61,21.26,23.26,9.93-3,17.52-2.5,22,1.64,3.35,3.1,1.85,9.37,1.39,11.29-4.26,17.8-33,25.33-37.26,26.4,0,0,57.36,13.5,76.83-13.5,0,0,7.18-8,6.5-36.17,0,0,18.3,4.64,19.06-6.33s-16.34-86-58.5-93.06-53.73,1.37-53.73,1.37c-3.77-21.89-10.86-37.51-17.77-37.65a15.72,15.72,0,0,0-7.2,2.39c-1.14.68-6.39,3.86-6.81,9-.19,2.3.72,4,2.54,7.4,1,1.78,9.29,12.56,6.47,8.95-10-7.54-16-7.64-16-7.64-6.08-.09-10.72,3.81-11.35,4.36-4,3.49-6.88,9.61-6.88,9.61-16.69-1.29-18.69-1.19-18.69-1.19-1.74.09-18.32,1.1-25.88,11.15-7.14,9.5-5,25.45,5.76,38.69,0,0-37,10.73,8.81,42.15l4.51-31.9S3597.36,1366.36,3612,1384.44Z"/><path class="cls-1" d="M3575.33,1416s-12.55.09-17.57,6"/><path class="cls-33" d="M3559.29,1423.32l-3.06-2.58c5.55-6.56,18.54-6.72,19.09-6.73l0,4C3572.11,1418,3562.9,1419.05,3559.29,1423.32Z"/><path class="cls-1" d="M3623.1,1429.72a14.27,14.27,0,0,1,11,8.92"/><path class="cls-33" d="M3632.23,1439.41a12.19,12.19,0,0,0-9.34-7.7l.4-4a16.18,16.18,0,0,1,12.63,10.14Z"/><path class="cls-58" d="M3687.29,1457.56s30.33,19.09,17.38,26.41-7.08,11-7.08,11-19.42,3.28-47.94-2c0,0,24-6.1,32.54-17.36S3687.29,1457.56,3687.29,1457.56Z"/><path class="cls-58" d="M3557.29,1400.57s-6.67,8.9-13.39,9.07-4.24,12.39-4.24,12.39l13.12,10.44Z"/><path class="cls-54" d="M3512.23,1920.2c21.46,18.29,98.09,80.66,147.58,60.42,7.67-3.13,22.27-11.36,21-15.45-1.57-5-24.73,2.51-56.84-1.65-19.74-2.56-35.24-9-66.25-22C3538.53,1933.45,3523,1925.82,3512.23,1920.2Z"/><path class="cls-1" d="M3651.32,2002.51a45.47,45.47,0,0,1-2.17-5.84l2.9-.77a43.53,43.53,0,0,0,2,5.4Z"/><path class="cls-1" d="M3687.32,2038.49a74,74,0,0,1-11.32-6.36l1.7-2.48a70.89,70.89,0,0,0,10.85,6.1ZM3666,2023.83a71.93,71.93,0,0,1-8.32-10l2.47-1.7a68.27,68.27,0,0,0,8,9.56Z"/><path class="cls-1" d="M3707.28,2048.76h-3V2044c-1.6-.34-3.19-.72-4.74-1.14l.79-2.89c1.86.5,3.79,1,5.74,1.34l1.21.24Z"/><path class="cls-1" d="M3729.83,2608.1l-3-.06.21-11.86,3,.05Zm.42-23.73-3,0,.22-11.86,3,.06Zm.44-23.7-3-.06.22-11.84,3,.05Zm.43-23.69-3-.06.23-11.84,3,.05Zm.45-23.69-3-.05.22-11.85,3,.06Zm.45-23.68-3-.06.23-11.84,3,.06Zm.46-23.68-3-.06.23-11.84,3,.06Zm.46-23.68-3-.06.24-11.81,3,.06Zm.48-23.65-3-.06.24-11.84,3,.06Zm.49-23.68-3-.07.25-11.84,3,.07Zm.51-23.69-3-.06.26-11.85,3,.07Zm.54-23.68-3-.07.28-11.85,3,.07Zm.57-23.7-3-.08c.11-4.22.22-8.19.32-11.86l3,.09C3735.74,2315.66,3735.64,2319.63,3735.53,2323.85Zm.67-23.71-3-.1c.16-5.12.31-9.12.44-11.89l3,.14C3736.5,2291,3736.36,2295,3736.2,2300.14Zm-3.14-23.28a54.81,54.81,0,0,0-4.46-10.59l2.65-1.41a57.5,57.5,0,0,1,4.7,11.19Zm-10.49-20.6c-2-3.06-4.32-6.28-6.81-9.57l2.39-1.81c2.53,3.34,4.86,6.61,6.92,9.71Zm-14.14-18.78c-2.27-2.71-3.75-4.36-3.77-4.38l-.38-.42v-6.61h3v5.46c.59.66,1.81,2.06,3.45,4Zm-1.15-23.23h-3v-11.82h3Zm0-23.64h-3v-11.82h3Zm0-23.64h-3v-11.82h3Zm0-23.65h-3V2131.5h3Zm0-23.64h-3v-11.82h3Zm0-23.64h-3v-11.82h3Zm0-23.64h-3v-11.82h3Z"/><rect class="cls-1" x="3725.08" y="2620.48" width="6" height="3" transform="translate(1042.78 6304.71) rotate(-89.02)"/><rect class="cls-59" x="1408.84" y="2188.72" width="312.1" height="19.95" rx="9.98"/><path class="cls-60" d="M1562.25,2208.65s-232.44-458.59-114.92-523.42S1588.47,2150,1562.25,2208.65Z"/><path class="cls-1" d="M1562.94,2200.33c-.61-97.22-99.23-434.93-100.23-438.33l3.84-1.12c1,3.4,99.78,341.65,100.39,439.43Z"/><path class="cls-61" d="M1562.25,2208.65s-61.59-379.69,78.89-475.21S1623.74,2180.17,1562.25,2208.65Z"/><path class="cls-1" d="M1567.91,2173.66c-10.77-53.45,84.53-360.85,88.6-373.91l3.81,1.19c-1,3.19-99.06,319.47-88.48,371.93Z"/><path class="cls-61" d="M1562.25,2208.65a279.79,279.79,0,0,0-1.9-88.48c-12-65.5-44.6-108.4-81.89-156.37-34.09-43.85-78.9-101.49-105.1-92-20.52,7.41-22.24,53.28-18.72,81,3.22,25.32,14.54,65.15,108,162.08C1486.64,2139.81,1519.92,2172.48,1562.25,2208.65Z"/><path class="cls-1" d="M1556.61,2181.92c-19.69-51.93-173.53-239.34-175.08-241.23l3.09-2.54c6.35,7.72,155.81,189.81,175.73,242.35Z"/><path class="cls-60" d="M1564.94,2188.72s69.72-226.64,196-204-113.37,207.06-163,220.45S1564.94,2188.72,1564.94,2188.72Z"/><path class="cls-1" d="M1580.47,2200.73l-3.91-.82c11.9-56.53,166-162.87,172.5-167.37l2.27,3.3C1749.73,2036.93,1592.05,2145.77,1580.47,2200.73Z"/><path class="cls-62" d="M1562.25,2208.65S1439.65,2046,1382,2081.58,1443.42,2210.05,1562.25,2208.65Z"/><path class="cls-1" d="M1558,2205.71c-84.37-20.89-138-72.73-138.53-73.25l2.8-2.86c.52.51,53.42,51.61,136.69,72.23Z"/><path class="cls-59" d="M1427.35,2188.72h275.33c.12,16.41-1.85,63.89-37.9,104.11a152.16,152.16,0,0,1-39.48,31.3l-114.81-.46S1423,2297.91,1427.35,2188.72Z"/><path class="cls-63" d="M1427.6,2208.67h274q-.33,3.06-.82,6.28c-.17,1.09-.35,2.16-.53,3.2a733.94,733.94,0,0,1-272.67-9.48Z"/><path class="cls-63" d="M1427.6,2208.67a229.2,229.2,0,0,0,77.29,79.29c50,31.05,98.87,35.45,120.41,36.17l-114.81-.46a131.69,131.69,0,0,1-52.92-36.5C1430,2255.36,1427.81,2220.06,1427.6,2208.67Z"/><g class="cls-64"><path class="cls-65" d="M2923.6,1334.09c9.89-.16,43.85.5,72.63,24.32,8.67,7.18,22.88,18.94,28.07,38.11,8.24,30.45-13.52,52.7,0,67,6.44,6.79,14.66,5.24,25.38,16.88a49.84,49.84,0,0,1,10.17,16c10.88,29.29,86.11,61,86.11,61-20.89-22.41-38.71-35-51.47-42.51a91,91,0,0,1-20.16-14.88,86.05,86.05,0,0,1-19.77-31.11c-1.77-4.84-1-4.15-4.63-19.62-7.94-33.91-13.08-43.67-13.51-56.42a29.81,29.81,0,0,0-1.32-8.3,34,34,0,0,0-8.28-13.44A131.17,131.17,0,0,0,2989.2,1343C2961.88,1330.85,2935.73,1332.54,2923.6,1334.09Z"/></g></g></svg>